<svg width="12" height="10" viewBox="0 0 12 10" fill="none" xmlns="http://www.w3.org/2000/svg">
<path opacity="0.2" d="M8.94421 9.28295C9.89068 9.28295 10.658 8.51568 10.658 7.56921C10.658 6.62274 9.89068 5.85547 8.94421 5.85547C7.99774 5.85547 7.23047 6.62274 7.23047 7.56921C7.23047 8.51568 7.99774 9.28295 8.94421 9.28295Z" fill="#4A90E2"/>
<path opacity="0.2" d="M3.06823 9.28295C4.01471 9.28295 4.78198 8.51568 4.78198 7.56921C4.78198 6.62274 4.01471 5.85547 3.06823 5.85547C2.12176 5.85547 1.35449 6.62274 1.35449 7.56921C1.35449 8.51568 2.12176 9.28295 3.06823 9.28295Z" fill="#4A90E2"/>
<path d="M9.18249 9.28295C10.129 9.28295 10.8962 8.51568 10.8962 7.56921C10.8962 6.62274 10.129 5.85547 9.18249 5.85547C8.23602 5.85547 7.46875 6.62274 7.46875 7.56921C7.46875 8.51568 8.23602 9.28295 9.18249 9.28295Z" stroke="#4A90E2" stroke-width="0.979281" stroke-linecap="round" stroke-linejoin="round"/>
<path d="M2.81726 9.28295C3.76373 9.28295 4.531 8.51568 4.531 7.56921C4.531 6.62274 3.76373 5.85547 2.81726 5.85547C1.87078 5.85547 1.10352 6.62274 1.10352 7.56921C1.10352 8.51568 1.87078 9.28295 2.81726 9.28295Z" stroke="#4A90E2" stroke-width="0.979281" stroke-linecap="round" stroke-linejoin="round"/>
<path d="M7.46816 1.93827C7.73858 1.93827 7.9578 1.71905 7.9578 1.44863C7.9578 1.1782 7.73858 0.958984 7.46816 0.958984C7.19774 0.958984 6.97852 1.1782 6.97852 1.44863C6.97852 1.71905 7.19774 1.93827 7.46816 1.93827Z" stroke="#4A90E2" stroke-width="0.979281" stroke-linecap="round" stroke-linejoin="round"/>
<path d="M6.00017 7.56858V5.85484L4.53125 4.38591L6.48981 2.91699L7.46909 4.38591H8.44838" stroke="#4A90E2" stroke-width="0.979281" stroke-linecap="round" stroke-linejoin="round"/>
</svg>
