<svg width="13" height="13" viewBox="0 0 13 13" fill="none" xmlns="http://www.w3.org/2000/svg">
<path opacity="0.2" d="M9.96047 7.34911L8.19156 9.11803C8.14334 9.16311 8.08493 9.19585 8.02131 9.21342C7.95769 9.231 7.89075 9.23291 7.82624 9.21898L5.03827 8.52198C4.98734 8.50779 4.93989 8.48324 4.89887 8.44988L2.26953 6.39736L3.83656 3.45077L6.30247 2.72974C6.39009 2.70462 6.48378 2.71143 6.56684 2.74897L8.23001 3.50364H7.235C7.18506 3.50347 7.13558 3.51314 7.08939 3.53211C7.0432 3.55109 7.00121 3.57898 6.96581 3.6142L5.08153 5.49368C5.04306 5.53317 5.01341 5.58039 4.99456 5.6322C4.9757 5.68402 4.96806 5.73925 4.97215 5.79423C4.97624 5.84922 4.99197 5.90271 5.01828 5.95116C5.04459 5.99962 5.0809 6.04193 5.12479 6.0753L5.38436 6.27238C5.65093 6.47134 5.97465 6.57882 6.30728 6.57882C6.6399 6.57882 6.96362 6.47134 7.23019 6.27238L7.84546 5.81093L9.96047 7.34911Z" fill="#4A90E2"/>
<path d="M11.9169 5.85512L10.7296 6.44636L9.19141 3.50458L10.3931 2.90372C10.4824 2.8582 10.5861 2.84984 10.6816 2.88045C10.777 2.91107 10.8565 2.97818 10.9026 3.06716L12.0851 5.33118C12.1091 5.3765 12.1238 5.42616 12.1283 5.47723C12.1328 5.5283 12.127 5.57977 12.1114 5.62858C12.0957 5.6774 12.0704 5.72259 12.037 5.7615C12.0036 5.8004 11.9628 5.83223 11.9169 5.85512V5.85512Z" stroke="#4A90E2" stroke-width="0.769094" stroke-linecap="round" stroke-linejoin="round"/>
<path d="M2.27003 6.3978L1.08274 5.80175C1.03702 5.77934 0.996279 5.74797 0.962931 5.70951C0.929582 5.67104 0.904309 5.62626 0.888613 5.57783C0.872918 5.5294 0.867122 5.47831 0.871569 5.42759C0.876015 5.37687 0.890615 5.32757 0.914499 5.28261L2.09698 3.01859C2.14324 2.92968 2.22238 2.86234 2.31755 2.83091C2.41272 2.79949 2.5164 2.80646 2.60651 2.85035L3.80822 3.4512L2.27003 6.3978Z" stroke="#4A90E2" stroke-width="0.769094" stroke-linecap="round" stroke-linejoin="round"/>
<path d="M10.7296 6.44553L9.96047 7.34921L8.19156 9.11813C8.14335 9.16321 8.08493 9.19595 8.02131 9.21353C7.95769 9.2311 7.89076 9.23301 7.82624 9.21908L5.03827 8.52208C4.98734 8.50789 4.93989 8.48334 4.89887 8.44998L2.26953 6.39746" stroke="#4A90E2" stroke-width="0.769094" stroke-linecap="round" stroke-linejoin="round"/>
<path d="M9.96107 7.35036L7.84606 5.81217L7.23079 6.27362C6.96422 6.47258 6.6405 6.58007 6.30787 6.58007C5.97525 6.58007 5.65153 6.47258 5.38496 6.27362L5.12539 6.07654C5.0815 6.04317 5.04519 6.00086 5.01888 5.95241C4.99256 5.90395 4.97684 5.85046 4.97275 5.79547C4.96866 5.74049 4.9763 5.68526 4.99515 5.63345C5.01401 5.58163 5.04366 5.53441 5.08213 5.49492L6.96641 3.61544C7.00181 3.58022 7.0438 3.55233 7.08999 3.53336C7.13618 3.51438 7.18566 3.50471 7.23559 3.50489H9.19198" stroke="#4A90E2" stroke-width="0.769094" stroke-linecap="round" stroke-linejoin="round"/>
<path d="M3.83691 3.45077L6.30282 2.72974C6.39044 2.70462 6.48414 2.71143 6.5672 2.74897L8.23036 3.50364" stroke="#4A90E2" stroke-width="0.769094" stroke-linecap="round" stroke-linejoin="round"/>
<path d="M5.73089 10.2329L4.28403 9.86761C4.22507 9.85429 4.17048 9.82616 4.12541 9.78589L3.03906 8.84375" stroke="#4A90E2" stroke-width="0.769094" stroke-linecap="round" stroke-linejoin="round"/>
</svg>
