<svg width="13" height="13" viewBox="0 0 13 13" fill="none" xmlns="http://www.w3.org/2000/svg">
<path opacity="0.2" d="M4.51453 10.5352H2.97634C2.87436 10.5352 2.77654 10.4947 2.70443 10.4226C2.63231 10.3505 2.5918 10.2527 2.5918 10.1507V2.45974C2.5918 2.35775 2.63231 2.25994 2.70443 2.18783C2.77654 2.11571 2.87436 2.0752 2.97634 2.0752H4.51453V10.5352Z" fill="#4A90E2"/>
<path d="M6.05078 5.53711H9.12716" stroke="#4A90E2" stroke-width="0.769094" stroke-linecap="round" stroke-linejoin="round"/>
<path d="M6.05078 7.0752H9.12716" stroke="#4A90E2" stroke-width="0.769094" stroke-linecap="round" stroke-linejoin="round"/>
<path d="M10.6673 2.0752H2.97634C2.76396 2.0752 2.5918 2.24736 2.5918 2.45974V10.1507C2.5918 10.3631 2.76396 10.5352 2.97634 10.5352H10.6673C10.8797 10.5352 11.0518 10.3631 11.0518 10.1507V2.45974C11.0518 2.24736 10.8797 2.0752 10.6673 2.0752Z" stroke="#4A90E2" stroke-width="0.769094" stroke-linecap="round" stroke-linejoin="round"/>
<path d="M4.51367 2.0752V10.5352" stroke="#4A90E2" stroke-width="0.769094" stroke-linecap="round" stroke-linejoin="round"/>
</svg>
