<svg width="13" height="13" viewBox="0 0 13 13" fill="none" xmlns="http://www.w3.org/2000/svg">
<path opacity="0.2" d="M1.60268 4.15918C1.56785 4.219 1.5496 4.28703 1.54981 4.35626V9.0958C1.55017 9.16426 1.56859 9.23142 1.60319 9.29049C1.63779 9.34957 1.68735 9.39847 1.74689 9.43228L5.9769 11.8117C6.03394 11.8443 6.0987 11.8609 6.16437 11.8597L6.20763 6.72603L1.60268 4.15918Z" fill="#4A90E2"/>
<path d="M10.7789 9.09744V4.35789C10.7786 4.28943 10.7602 4.22228 10.7256 4.1632C10.691 4.10413 10.6414 4.05522 10.5819 4.02141L6.35184 1.64203C6.29484 1.60912 6.23018 1.5918 6.16437 1.5918C6.09856 1.5918 6.0339 1.60912 5.9769 1.64203L1.74688 4.02141C1.68735 4.05522 1.63779 4.10413 1.60319 4.1632C1.56859 4.22228 1.55017 4.28943 1.5498 4.35789V9.09744C1.55017 9.1659 1.56859 9.23305 1.60319 9.29213C1.63779 9.3512 1.68735 9.40011 1.74688 9.43391L5.9769 11.8133C6.0339 11.8462 6.09856 11.8635 6.16437 11.8635C6.23018 11.8635 6.29484 11.8462 6.35184 11.8133L10.5819 9.43391C10.6414 9.40011 10.691 9.3512 10.7256 9.29213C10.7602 9.23305 10.7786 9.1659 10.7789 9.09744V9.09744Z" stroke="#4A90E2" stroke-width="0.769094" stroke-linecap="round" stroke-linejoin="round"/>
<path d="M8.51908 7.9052V5.40564L3.85645 2.83398" stroke="#4A90E2" stroke-width="0.769094" stroke-linecap="round" stroke-linejoin="round"/>
<path d="M10.7259 4.15918L6.20749 6.72603L1.60254 4.15918" stroke="#4A90E2" stroke-width="0.769094" stroke-linecap="round" stroke-linejoin="round"/>
<path d="M6.20732 6.72754L6.16406 11.8612" stroke="#4A90E2" stroke-width="0.769094" stroke-linecap="round" stroke-linejoin="round"/>
</svg>
