<svg width="13" height="13" viewBox="0 0 13 13" fill="none" xmlns="http://www.w3.org/2000/svg">
<path opacity="0.2" d="M8.80715 6.92188H1.11621V8.84461C1.11621 8.9466 1.15673 9.04441 1.22884 9.11653C1.30096 9.18864 1.39877 9.22916 1.50076 9.22916H2.46213C2.46213 8.92319 2.58367 8.62976 2.80002 8.41341C3.01637 8.19706 3.3098 8.07552 3.61577 8.07552C3.92173 8.07552 4.21516 8.19706 4.43151 8.41341C4.64786 8.62976 4.76941 8.92319 4.76941 9.22916H8.23033C8.2302 9.02653 8.28345 8.82743 8.38471 8.65192C8.48596 8.4764 8.63167 8.33065 8.80715 8.22933V6.92188Z" fill="#4A90E2"/>
<path opacity="0.2" d="M10.5381 9.22948C10.5382 9.02691 10.485 8.82788 10.3838 8.6524C10.2826 8.47692 10.137 8.33118 9.96158 8.22984C9.78618 8.1285 9.58719 8.07513 9.38462 8.0751C9.18205 8.07506 8.98305 8.12837 8.80762 8.22966V5.76855H11.884V8.84493C11.884 8.94692 11.8435 9.04473 11.7714 9.11685C11.6992 9.18896 11.6014 9.22948 11.4994 9.22948H10.5381Z" fill="#4A90E2"/>
<path d="M8.80762 3.84571H10.8553C10.9319 3.84521 11.0069 3.8679 11.0704 3.91079C11.1339 3.95369 11.1829 4.01478 11.211 4.08605L11.884 5.76845" stroke="#4A90E2" stroke-width="0.769094" stroke-linecap="round" stroke-linejoin="round"/>
<path d="M1.11621 6.92188H8.80715" stroke="#4A90E2" stroke-width="0.769094" stroke-linecap="round" stroke-linejoin="round"/>
<path d="M9.38411 10.3835C10.0212 10.3835 10.5378 9.86695 10.5378 9.22981C10.5378 8.59267 10.0212 8.07617 9.38411 8.07617C8.74697 8.07617 8.23047 8.59267 8.23047 9.22981C8.23047 9.86695 8.74697 10.3835 9.38411 10.3835Z" stroke="#4A90E2" stroke-width="0.769094" stroke-miterlimit="10"/>
<path d="M3.61653 10.3835C4.25367 10.3835 4.77017 9.86695 4.77017 9.22981C4.77017 8.59267 4.25367 8.07617 3.61653 8.07617C2.97939 8.07617 2.46289 8.59267 2.46289 9.22981C2.46289 9.86695 2.97939 10.3835 3.61653 10.3835Z" stroke="#4A90E2" stroke-width="0.769094" stroke-miterlimit="10"/>
<path d="M8.23143 9.22852H4.77051" stroke="#4A90E2" stroke-width="0.769094" stroke-linecap="round" stroke-linejoin="round"/>
<path d="M2.46213 9.22893H1.50076C1.39877 9.22893 1.30096 9.18841 1.22884 9.11629C1.15673 9.04418 1.11621 8.94637 1.11621 8.84438V3.46072C1.11621 3.35873 1.15673 3.26092 1.22884 3.1888C1.30096 3.11669 1.39877 3.07617 1.50076 3.07617H8.80715V8.2291" stroke="#4A90E2" stroke-width="0.769094" stroke-linecap="round" stroke-linejoin="round"/>
<path d="M8.80762 5.76855H11.884V8.84493C11.884 8.94692 11.8435 9.04473 11.7714 9.11685C11.6992 9.18896 11.6014 9.22948 11.4994 9.22948H10.5381" stroke="#4A90E2" stroke-width="0.769094" stroke-linecap="round" stroke-linejoin="round"/>
</svg>
